<svg width="10" height="11" viewBox="0 0 10 11" fill="none" xmlns="http://www.w3.org/2000/svg">
<path id="Vector" d="M4.96032 3.83736H5.95238V2.40878H7.44048V1.4564H5.95238V0.027832H4.96032V1.4564H3.47222V2.40878H4.96032V3.83736ZM2.97619 8.12307C2.43056 8.12307 1.98909 8.55164 1.98909 9.07545C1.98909 9.59926 2.43056 10.0278 2.97619 10.0278C3.52183 10.0278 3.96825 9.59926 3.96825 9.07545C3.96825 8.55164 3.52183 8.12307 2.97619 8.12307ZM7.93651 8.12307C7.39087 8.12307 6.94941 8.55164 6.94941 9.07545C6.94941 9.59926 7.39087 10.0278 7.93651 10.0278C8.48214 10.0278 8.92857 9.59926 8.92857 9.07545C8.92857 8.55164 8.48214 8.12307 7.93651 8.12307ZM3.06052 6.57545L3.0754 6.51831L3.52183 5.74212H7.21726C7.58929 5.74212 7.91667 5.54688 8.08532 5.25164L10 1.91355L9.1369 1.4564H9.13194L8.58631 2.40878L7.21726 4.78974H3.73512L3.67063 4.66117L2.55952 2.40878L2.08829 1.4564L1.62202 0.504023H0V1.4564H0.992064L2.77778 5.07069L2.10813 6.23736C2.02877 6.37069 1.98413 6.52783 1.98413 6.6945C1.98413 7.21831 2.43056 7.64688 2.97619 7.64688H8.92857V6.6945H3.18452C3.12004 6.6945 3.06052 6.64212 3.06052 6.57545Z" fill="#1D353F"/>
</svg>
