<svg width="21" height="20" viewBox="0 0 21 20" fill="none" xmlns="http://www.w3.org/2000/svg">
<g id="Bard">
<path id="Vector" d="M10.034 13.1487L9.30197 14.8254C9.02072 15.47 8.12863 15.47 7.84738 14.8254L7.1153 13.1487C6.46363 11.6567 5.29113 10.4687 3.82863 9.81958L1.81363 8.925C1.1728 8.64083 1.1728 7.70875 1.81363 7.42417L3.76572 6.5575C5.26613 5.89167 6.45947 4.66 7.09988 3.11667L7.84155 1.33C8.11655 0.667084 9.0328 0.667084 9.30822 1.33L10.0499 3.11667C10.6903 4.65958 11.884 5.89125 13.384 6.5575L15.3361 7.42417C15.977 7.70833 15.977 8.64042 15.3361 8.925L13.3211 9.81958C11.8582 10.4692 10.6857 11.6567 10.034 13.1487Z" fill="url(#paint0_linear_4_1374)"/>
<path id="Vector_2" d="M16.8376 18.4358L16.6318 18.9075C16.481 19.2529 16.0026 19.2529 15.8522 18.9075L15.6464 18.4358C15.2793 17.5946 14.6185 16.9246 13.7935 16.5583L13.1593 16.2767C12.8164 16.1242 12.8164 15.6258 13.1593 15.4733L13.758 15.2071C14.6039 14.8313 15.2768 14.1367 15.6376 13.2667L15.8489 12.7567C15.9964 12.4013 16.4876 12.4013 16.6347 12.7567L16.846 13.2667C17.2068 14.1367 17.8797 14.8313 18.7255 15.2071L19.3243 15.4733C19.6672 15.6258 19.6672 16.1242 19.3243 16.2767L18.6901 16.5583C17.8655 16.9246 17.2047 17.5946 16.8376 18.4358Z" fill="url(#paint1_linear_4_1374)"/>
</g>
<defs>
<linearGradient id="paint0_linear_4_1374" x1="2.55618" y1="0.832813" x2="14.5936" y2="15.3089" gradientUnits="userSpaceOnUse">
<stop stop-color="#FAC585"/>
<stop offset="1" stop-color="#05697C"/>
</linearGradient>
<linearGradient id="paint1_linear_4_1374" x1="19.1705" y1="19.1666" x2="13.3131" y2="12.4901" gradientUnits="userSpaceOnUse">
<stop stop-color="#05697C"/>
<stop offset="1" stop-color="#D5D2C3"/>
</linearGradient>
</defs>
</svg>
