<svg width="22" height="22" viewBox="0 0 22 22" fill="none" xmlns="http://www.w3.org/2000/svg">
<g id="Shopping cart" clip-path="url(#clip0_4_1379)">
<path id="Vector" d="M6.41675 16.5C5.40841 16.5 4.59258 17.325 4.59258 18.3333C4.59258 19.3417 5.40841 20.1667 6.41675 20.1667C7.42508 20.1667 8.25008 19.3417 8.25008 18.3333C8.25008 17.325 7.42508 16.5 6.41675 16.5ZM0.916748 1.83333V3.66667H2.75008L6.05008 10.6242L4.81258 12.87C4.66591 13.1267 4.58341 13.4292 4.58341 13.75C4.58341 14.7583 5.40841 15.5833 6.41675 15.5833H17.4167V13.75H6.80175C6.67341 13.75 6.57258 13.6492 6.57258 13.5208L6.60008 13.4108L7.42508 11.9167H14.2542C14.9417 11.9167 15.5467 11.5408 15.8584 10.9725L19.1401 5.02333C19.2134 4.895 19.2501 4.73917 19.2501 4.58333C19.2501 4.07917 18.8376 3.66667 18.3334 3.66667H4.77591L3.91425 1.83333H0.916748ZM15.5834 16.5C14.5751 16.5 13.7592 17.325 13.7592 18.3333C13.7592 19.3417 14.5751 20.1667 15.5834 20.1667C16.5917 20.1667 17.4167 19.3417 17.4167 18.3333C17.4167 17.325 16.5917 16.5 15.5834 16.5Z" fill="black"/>
</g>
<defs>
<clipPath id="clip0_4_1379">
<rect width="22" height="22" fill="white"/>
</clipPath>
</defs>
</svg>
